<svg width="74" height="46" viewBox="0 0 74 46" fill="none" xmlns="http://www.w3.org/2000/svg">
<path d="M36.5482 0C30.5189 0.0171771 24.6951 1.99282 20.1289 5.57004C16.6294 8.3094 14.0939 11.8789 13.4406 15.4608C5.78376 16.9965 0 23.0563 0 30.3737C0 38.8741 7.80305 45.656 17.2736 45.656H57.9609C66.2528 45.656 73.0964 39.7208 73.0964 32.2622C73.0964 25.4719 67.4223 19.9392 60.1492 19.0054C59.0391 8.29695 48.8376 0 36.5482 0ZM47.3025 21.3587C47.5149 21.5517 47.6834 21.7807 47.7983 22.0328C47.9133 22.2849 47.9724 22.5552 47.9724 22.828C47.9724 23.1009 47.9133 23.3711 47.7983 23.6232C47.6834 23.8753 47.5149 24.1044 47.3025 24.2973C47.0902 24.4903 46.838 24.6433 46.5605 24.7478C46.283 24.8522 45.9856 24.9059 45.6853 24.9059C45.3849 24.9059 45.0875 24.8522 44.81 24.7478C44.5325 24.6433 44.2804 24.4903 44.068 24.2973L38.8325 19.5366V35.2797C38.8325 35.8301 38.5918 36.3579 38.1634 36.7471C37.7351 37.1363 37.154 37.3549 36.5482 37.3549C35.9424 37.3549 35.3614 37.1363 34.933 36.7471C34.5046 36.3579 34.264 35.8301 34.264 35.2797V19.5366L29.0284 24.2973C28.5995 24.687 28.0178 24.9059 27.4112 24.9059C26.8046 24.9059 26.2228 24.687 25.7939 24.2973C25.365 23.9076 25.124 23.3791 25.124 22.828C25.124 22.2769 25.365 21.7484 25.7939 21.3587L34.931 13.0576C35.1432 12.8644 35.3952 12.711 35.6727 12.6064C35.9503 12.5018 36.2478 12.4479 36.5482 12.4479C36.8487 12.4479 37.1462 12.5018 37.4237 12.6064C37.7012 12.711 37.9533 12.8644 38.1655 13.0576L47.3025 21.3587Z" fill="black"/>
</svg>
